Coordinates
version=1
nRows=37
nColumns=38
inDegrees=no

Units are S.I. units (second, meters, Newtons, ...)
If the header above contains a line with 'inDegrees', this indicates whether rotational values are in degrees (yes) or radians (no).

endheader
time	pelvis_tilt	pelvis_list	pelvis_rotation	pelvis_tx	pelvis_ty	pelvis_tz	hip_flexion_r	hip_adduction_r	hip_rotation_r	knee_angle_r	ankle_angle_r	subtalar_angle_r	mtp_angle_r	hip_flexion_l	hip_adduction_l	hip_rotation_l	knee_angle_l	ankle_angle_l	subtalar_angle_l	mtp_angle_l	lumbar_extension	lumbar_bending	lumbar_rotation	arm_flex_r	arm_add_r	arm_rot_r	elbow_flex_r	pro_sup_r	wrist_flex_r	wrist_dev_r	arm_flex_l	arm_add_l	arm_rot_l	elbow_flex_l	pro_sup_l	wrist_flex_l	wrist_dev_l
55	-0.333191	1.52032	1.83481	0.666316	0.535544	0.97889	0.111614	-0.0765119	-0.122616	0.232745	0.0961429	0	0	0.0361104	0.0224345	-0.230836	0.124231	0.0664181	0	0	-0.0801698	0.0131616	-0.0183571	0.178224	-0.146159	0.150138	0.265763	1.41873	0	0	-0.0484374	-0.255229	0.464482	0.712222	0.87787	0	0
55.01	-0.347245	1.52015	1.84735	0.665277	0.534075	0.97868	0.119855	-0.0790545	-0.121943	0.245257	0.100593	0	0	0.0484046	0.0219451	-0.233452	0.145504	0.0739631	0	0	-0.0894017	0.0156455	-0.0192828	0.187029	-0.151543	0.156294	0.267798	1.41751	0	0	-0.048555	-0.255765	0.457218	0.7147	0.882382	0	0
55.02	-0.0893708	1.5065	1.59395	0.664291	0.531804	0.976281	0.148308	-0.0664387	-0.12348	0.264269	0.106133	0	0	0.134672	-0.0230648	-0.326391	0.293983	0.147557	0	0	-0.0809201	0.0328637	-0.0252145	0.193769	-0.159358	0.171738	0.271832	1.41127	0	0	-0.0525344	-0.25459	0.444928	0.719712	0.892953	0	0
55.03	-0.0914574	1.50596	1.59374	0.663217	0.530272	0.975766	0.159772	-0.068281	-0.120346	0.281229	0.112311	0	0	0.146749	-0.0240542	-0.324228	0.313361	0.152045	0	0	-0.0899954	0.0365089	-0.0247131	0.202592	-0.165571	0.17926	0.274589	1.40824	0	0	-0.0523953	-0.254758	0.439189	0.722724	0.896322	0	0
55.04	-0.104258	1.50417	1.60411	0.662111	0.528611	0.974949	0.175563	-0.0713651	-0.117103	0.303423	0.12081	0	0	0.16103	-0.0243302	-0.321702	0.334095	0.156838	0	0	-0.0981002	0.039397	-0.0242845	0.21179	-0.171699	0.188041	0.276897	1.40526	0	0	-0.0530908	-0.25493	0.431566	0.727385	0.899889	0	0
55.05	-0.124153	1.50079	1.62116	0.661005	0.526821	0.973798	0.195064	-0.0750264	-0.11192	0.328937	0.130575	0	0	0.177838	-0.0240448	-0.318956	0.356177	0.162069	0	0	-0.104946	0.0417022	-0.0234698	0.221596	-0.17813	0.20004	0.278366	1.40128	0	0	-0.0543752	-0.255206	0.422748	0.733897	0.904214	0	0
55.06	-0.14963	1.49497	1.64286	0.659933	0.524892	0.972213	0.219615	-0.079245	-0.104733	0.358946	0.142324	0	0	0.198185	-0.0232139	-0.316521	0.380098	0.168074	0	0	-0.109498	0.0433725	-0.0221028	0.231106	-0.185532	0.220594	0.28102	1.39105	0	0	-0.0566663	-0.255493	0.412441	0.741678	0.91221	0	0
55.07	-0.172177	1.49104	1.66063	0.65876	0.52281	0.970544	0.243129	-0.0830879	-0.0961634	0.390294	0.154236	0	0	0.216467	-0.0222581	-0.314032	0.403627	0.174118	0	0	-0.110607	0.042046	-0.000498879	0.224872	-0.198745	0.221374	0.292377	1.37566	0	0	-0.0388473	-0.25943	0.447514	0.735582	0.908329	0	0
55.08	-0.204915	1.48647	1.6886	0.657725	0.520824	0.968686	0.266915	-0.0874439	-0.0864657	0.420963	0.166319	0	0	0.234934	-0.0200441	-0.310788	0.426396	0.179678	0	0	-0.117883	0.0428314	0.00263509	0.235271	-0.206104	0.23529	0.294525	1.36986	0	0	-0.0398256	-0.261277	0.44297	0.745476	0.906401	0	0
55.09	-0.234556	1.48097	1.71262	0.656671	0.518723	0.966446	0.292353	-0.0915683	-0.0759646	0.452536	0.179378	0	0	0.255114	-0.0179088	-0.307819	0.450724	0.186677	0	0	-0.124332	0.0439919	0.00418323	0.243226	-0.224934	0.337607	0.311967	1.24713	0	0	-0.0438887	-0.261744	0.429946	0.757099	0.914473	0	0
55.1	-0.269581	1.47573	1.74135	0.655752	0.516663	0.964109	0.317033	-0.0961332	-0.0656294	0.483421	0.192444	0	0	0.274248	-0.0150013	-0.304752	0.474168	0.193325	0	0	-0.132278	0.0437525	0.00888231	0.257759	-0.226805	0.316242	0.30329	1.29729	0	0	-0.0457869	-0.262509	0.419391	0.768102	0.928044	0	0
55.11	-0.302548	1.47165	1.76799	0.654857	0.514603	0.961698	0.339925	-0.100581	-0.0567582	0.51355	0.204822	0	0	0.291992	-0.0122857	-0.301322	0.497863	0.200517	0	0	-0.141736	0.043915	0.0128856	0.271001	-0.23503	0.34165	0.303712	1.27758	0	0	-0.0475062	-0.264426	0.413475	0.780416	0.92451	0	0
55.12	-0.33213	1.46749	1.79124	0.653995	0.51252	0.959158	0.36254	-0.104862	-0.048524	0.542532	0.215542	0	0	0.309987	-0.00972741	-0.297434	0.521992	0.20792	0	0	-0.151573	0.0441859	0.0168064	0.285793	-0.240593	0.34895	0.300043	1.28693	0	0	-0.0490931	-0.265538	0.405064	0.791377	0.932267	0	0
55.13	-0.359516	1.4642	1.81239	0.653164	0.510408	0.956558	0.383389	-0.108837	-0.040899	0.569386	0.224964	0	0	0.327311	-0.0076044	-0.293968	0.546407	0.215574	0	0	-0.163341	0.0446385	0.0188796	0.302393	-0.245203	0.357483	0.296069	1.29399	0	0	-0.0516719	-0.266694	0.394464	0.803298	0.93964	0	0
55.14	-0.379216	1.46041	1.82638	0.65233	0.508314	0.953765	0.404641	-0.112625	-0.0355443	0.596012	0.234194	0	0	0.345922	-0.00615709	-0.290384	0.571768	0.223582	0	0	-0.174085	0.0457306	0.0207607	0.318562	-0.24938	0.364966	0.291902	1.2986	0	0	-0.0538437	-0.267581	0.384864	0.814139	0.947157	0	0
55.15	-0.395149	1.45626	1.83717	0.651528	0.506245	0.950786	0.425826	-0.116451	-0.0318201	0.622026	0.243511	0	0	0.365375	-0.00485068	-0.286269	0.59762	0.231758	0	0	-0.184118	0.0469611	0.0222338	0.334659	-0.253478	0.373729	0.287808	1.30167	0	0	-0.055686	-0.268598	0.376415	0.823582	0.955589	0	0
55.16	-0.410122	1.45316	1.84781	0.650734	0.504288	0.9478	0.444907	-0.120399	-0.029445	0.646575	0.251824	0	0	0.383562	-0.003627	-0.281475	0.623194	0.239336	0	0	-0.195013	0.0484869	0.0236038	0.350123	-0.258019	0.383293	0.28482	1.30279	0	0	-0.0562186	-0.269838	0.370835	0.830957	0.962906	0	0
55.17	-0.415336	1.44867	1.84994	0.649856	0.50243	0.944521	0.465371	-0.124325	-0.0282159	0.670854	0.259241	0	0	0.404466	-0.00290738	-0.275636	0.65065	0.247563	0	0	-0.201886	0.0507163	0.0275669	0.361293	-0.263806	0.389459	0.282907	1.30168	0	0	-0.053705	-0.271102	0.372633	0.834595	0.968961	0	0
55.18	-0.414771	1.44457	1.84771	0.648939	0.500719	0.941109	0.484536	-0.128091	-0.0284569	0.693712	0.265032	0	0	0.425413	-0.002601	-0.268857	0.678391	0.25568	0	0	-0.208409	0.0538329	0.0306056	0.371117	-0.269568	0.393609	0.282594	1.29976	0	0	-0.0509292	-0.27242	0.375758	0.837108	0.974056	0	0
55.19	-0.406585	1.44025	1.83904	0.648004	0.4991	0.937437	0.503606	-0.131384	-0.0296618	0.716099	0.269891	0	0	0.447663	-0.00294365	-0.26114	0.707423	0.264065	0	0	-0.213771	0.0579492	0.0327268	0.380144	-0.275395	0.397278	0.283117	1.29757	0	0	-0.0485009	-0.273771	0.379213	0.839116	0.978891	0	0
55.2	-0.393938	1.43632	1.82675	0.64713	0.497561	0.933577	0.522299	-0.133923	-0.03086	0.738759	0.274906	0	0	0.470269	-0.00387755	-0.252877	0.737448	0.272722	0	0	-0.218779	0.0627911	0.0342867	0.38866	-0.28116	0.40074	0.284221	1.29512	0	0	-0.0463467	-0.275253	0.382702	0.841221	0.983362	0	0
55.21	-0.382253	1.43311	1.81588	0.646335	0.4961	0.929581	0.54074	-0.136198	-0.0314897	0.762579	0.279738	0	0	0.492266	-0.0047442	-0.244265	0.767866	0.281335	0	0	-0.224244	0.0676172	0.0353663	0.396731	-0.286694	0.403612	0.286032	1.2927	0	0	-0.04459	-0.2769	0.385586	0.844082	0.986957	0	0
55.22	-0.373811	1.43093	1.80916	0.645577	0.494837	0.925473	0.558766	-0.139124	-0.0324769	0.78834	0.283872	0	0	0.512424	-0.00492309	-0.235591	0.797384	0.290645	0	0	-0.230361	0.072232	0.0353387	0.404563	-0.291772	0.406911	0.28762	1.29086	0	0	-0.0435571	-0.278807	0.38767	0.847724	0.989574	0	0
55.23	-0.368951	1.42965	1.80656	0.644842	0.493741	0.92126	0.575763	-0.142152	-0.0322883	0.81425	0.286359	0	0	0.530579	-0.00440468	-0.227309	0.825543	0.30069	0	0	-0.237094	0.0764999	0.0346394	0.411894	-0.296422	0.409321	0.289492	1.2894	0	0	-0.0430998	-0.280979	0.389112	0.85152	0.99222	0	0
55.24	-0.368357	1.43016	1.80837	0.644191	0.492807	0.917058	0.590545	-0.144796	-0.0305099	0.840061	0.287363	0	0	0.545673	-0.00362294	-0.2197	0.852243	0.31112	0	0	-0.245449	0.0803671	0.033704	0.41929	-0.300701	0.411658	0.291126	1.28908	0	0	-0.042735	-0.283271	0.38998	0.855455	0.994421	0	0
55.25	-0.368903	1.43188	1.81135	0.643659	0.492001	0.912823	0.604051	-0.146454	-0.0276878	0.866114	0.289235	0	0	0.55919	-0.00296532	-0.212051	0.87879	0.321479	0	0	-0.254764	0.0841178	0.0327401	0.426888	-0.304668	0.415439	0.292165	1.29035	0	0	-0.042472	-0.285596	0.390387	0.859304	0.996029	0	0
55.26	-0.370076	1.43426	1.81483	0.643235	0.491315	0.90852	0.616989	-0.147442	-0.0242428	0.892596	0.293304	0	0	0.572438	-0.00229507	-0.204002	0.906283	0.331483	0	0	-0.264372	0.0877552	0.0319607	0.434231	-0.3085	0.420495	0.293185	1.29391	0	0	-0.0421768	-0.287889	0.390782	0.862146	0.997774	0	0
55.27	-0.371402	1.43684	1.81848	0.642869	0.490721	0.904125	0.629634	-0.148157	-0.0207052	0.91961	0.299967	0	0	0.585941	-0.00132724	-0.195439	0.934675	0.341106	0	0	-0.273707	0.0913497	0.0312189	0.440824	-0.312015	0.424922	0.294548	1.30035	0	0	-0.0418051	-0.290096	0.391411	0.864308	0.999277	0	0
55.28	-0.366781	1.43855	1.81686	0.642527	0.490218	0.899507	0.642803	-0.148213	-0.017597	0.94633	0.308221	0	0	0.601105	-0.000321284	-0.18601	0.963908	0.350676	0	0	-0.281146	0.0955312	0.0300496	0.446628	-0.315204	0.428692	0.29549	1.31251	0	0	-0.0417756	-0.29224	0.392408	0.866035	1.00064	0	0
55.29	-0.360961	1.4396	1.81466	0.642302	0.48987	0.894728	0.656124	-0.148043	-0.0145596	0.972337	0.316224	0	0	0.616463	0.000789143	-0.177291	0.992182	0.360042	0	0	-0.287383	0.0990565	0.0298706	0.453427	-0.309029	0.357846	0.283731	1.43892	0	0	-0.0407415	-0.29474	0.395454	0.867002	1.0002	0	0
55.3	-0.35395	1.44159	1.81115	0.642061	0.489572	0.889908	0.668072	-0.147761	-0.012332	0.997882	0.32417	0	0	0.630278	0.00147168	-0.169489	1.01949	0.369655	0	0	-0.294078	0.103337	0.0289509	0.457609	-0.311232	0.351527	0.285014	1.4648	0	0	-0.0402022	-0.296572	0.397421	0.867476	0.998693	0	0
55.31	-0.347004	1.44394	1.80766	0.641811	0.489375	0.885063	0.679192	-0.147828	-0.0108915	1.02314	0.332453	0	0	0.643047	0.00204552	-0.162485	1.04588	0.379366	0	0	-0.300735	0.107727	0.0284111	0.460799	-0.313744	0.344763	0.287364	1.4882	0	0	-0.0393391	-0.297933	0.399768	0.866761	0.997119	0	0
55.32	-0.343032	1.44667	1.80725	0.641575	0.489277	0.880252	0.689388	-0.14851	-0.00983582	1.04793	0.34105	0	0	0.654464	0.00325172	-0.1557	1.07101	0.389165	0	0	-0.307509	0.111791	0.0281058	0.462951	-0.316478	0.338086	0.290677	1.50858	0	0	-0.0378949	-0.298766	0.402456	0.865006	0.994174	0	0
55.33	-0.343856	1.44967	1.81169	0.641354	0.48925	0.875538	0.698721	-0.149475	-0.00829126	1.07195	0.349936	0	0	0.664657	0.00540484	-0.148777	1.095	0.398804	0	0	-0.314474	0.115244	0.0278886	0.464625	-0.319367	0.332979	0.293919	1.52625	0	0	-0.0358507	-0.299043	0.404828	0.862275	0.990842	0	0
55.34	-0.348814	1.45297	1.82067	0.641146	0.48932	0.870987	0.706855	-0.150701	-0.00640036	1.09498	0.359009	0	0	0.67373	0.00834999	-0.14176	1.11787	0.407909	0	0	-0.321736	0.11835	0.0273853	0.465635	-0.322157	0.327886	0.297584	1.53752	0	0	-0.0332647	-0.298675	0.406759	0.85825	0.987902	0	0
55.35	-0.357586	1.45649	1.83387	0.640967	0.489467	0.866631	0.713845	-0.152125	-0.00420608	1.11695	0.368106	0	0	0.681904	0.0116714	-0.135111	1.13978	0.416266	0	0	-0.329285	0.121071	0.0268906	0.465809	-0.32482	0.321874	0.301416	1.54557	0	0	-0.0299615	-0.29783	0.408815	0.853209	0.984193	0	0
55.36	-0.36661	1.46003	1.84787	0.640784	0.48968	0.862448	0.72012	-0.153688	-0.00226691	1.13808	0.376879	0	0	0.68967	0.0150462	-0.128721	1.16095	0.423847	0	0	-0.336759	0.123984	0.026108	0.465318	-0.327379	0.316207	0.305266	1.55027	0	0	-0.0263996	-0.29642	0.41059	0.847668	0.979494	0	0
